<svg width="24" height="24" viewBox="0 0 24 24" fill="none" xmlns="http://www.w3.org/2000/svg">
<path fill-rule="evenodd" clip-rule="evenodd" d="M19 8C20.6569 8 22 6.65685 22 5C22 3.34315 20.6569 2 19 2C17.3431 2 16 3.34315 16 5C16 6.65685 17.3431 8 19 8ZM20 12.0001C18.61 12.0001 17.22 11.5301 16 10.6801C13.56 12.3901 10.44 12.3901 8 10.6801C6.78 11.5301 5.39 12.0001 4 12.0001H2V14.0001H4C5.38 14.0001 6.74 13.6501 8 13.0101C10.52 14.3001 13.48 14.3001 16 13.0101C17.26 13.6601 18.62 14.0001 20 14.0001H22V12.0001H20ZM16 14.6801C17.22 15.5301 18.61 16.0001 20 16.0001H22V18.0001H20C18.62 18.0001 17.26 17.6601 16 17.0101C13.48 18.3001 10.52 18.3001 8 17.0101C6.74 17.6501 5.38 18.0001 4 18.0001H2V16.0001H4C5.39 16.0001 6.78 15.5301 8 14.6801C10.44 16.3901 13.56 16.3901 16 14.6801ZM16 18.68C17.22 19.53 18.61 20 20 20H22V22H20C18.62 22 17.26 21.66 16 21.01C13.48 22.3 10.52 22.3 8 21.01C6.74 21.65 5.38 22 4 22H2V20H4C5.39 20 6.78 19.53 8 18.68C10.44 20.39 13.56 20.39 16 18.68Z" fill="#E5BF9B"/>
</svg>
